<svg width="24px" height="24px" viewBox="0 0 48 48" version="1.1" xmlns="http://www.w3.org/2000/svg" xmlns:xlink="http://www.w3.org/1999/xlink">
  <defs>
    <path d="M24,0 C37.254834,-2.4348735e-15 48,10.745166 48,24 C48,37.254834 37.254834,48 24,48 C10.745166,48 1.623249e-15,37.254834 0,24 C-1.623249e-15,10.745166 10.745166,2.4348735e-15 24,0 Z" id="path-1"></path>
  </defs>
  <g id="01_desktop" stroke="none" stroke-width="1" fill="none" fill-rule="evenodd">
    <mask id="mask-2" fill="white"><use xlink:href="#path-1"></use></mask>
    <g></g>
    <path d="M34.0138072,48.0010404 L25.142256,48.0005397 L25.1487095,48.0559629 C25.2914573,49.1512696 26.2950988,49.9234713 27.3904055,49.7807235 C29.6821605,49.4820465 31.9058639,48.8814962 34.0138072,48.0010404 Z M13.9886907,48.0020838 C15.5152932,48.6395037 17.1048029,49.1310535 18.7386527,49.4669704 C19.7900668,49.6831395 20.8183184,49.0312415 21.0796455,48.0013617 L13.9886907,48.0020838 Z M33.8797258,43.662665 C31.69128,44.7646292 29.3293382,45.4942016 26.8734701,45.8142669 C25.8057479,45.9534197 25.0450614,46.9106502 25.1409366,47.9733583 C29.3001713,47.7787002 33.1825956,46.5253334 36.5248169,44.4766505 L36.5655242,44.5495059 C36.0687558,43.5629488 34.8662829,43.1658966 33.8797258,43.662665 Z M10.0162673,43.5075025 C13.2166737,45.8057455 17.0058247,47.3359044 21.1139985,47.8282575 L21.1004488,47.9107187 C21.3228937,46.8287797 20.6261361,45.7713676 19.5441971,45.5489227 C17.1245242,45.0514418 14.8200522,44.1501614 12.7137634,42.8886681 C11.8135313,42.3495033 10.660001,42.6006128 10.0603023,43.4395312 L10.0162673,43.5075025 Z M43.9490757,33.2890553 C42.9087655,35.5190624 41.4985716,37.5599303 39.7834693,39.3258868 C39.0335217,40.0980711 39.0319798,41.3202374 39.7683992,42.0934853 C42.7769125,39.4693851 45.1248953,36.1071688 46.5300606,32.289123 L46.6070849,32.3221078 C45.6060807,31.855134 44.4160495,32.2880512 43.9490757,33.2890553 Z M0.934706795,30.6550892 C2.0659235,34.5827297 4.17320298,38.0968698 6.97700398,40.917968 L6.91585566,40.9737748 C7.76101393,40.2625918 7.86962234,39.0009279 7.15843934,38.1557696 C5.57397239,36.272815 4.31381464,34.1379595 3.43648009,31.8375327 C3.06161715,30.8546183 1.99548465,30.3383623 1.00326594,30.6314356 L0.934706795,30.6550892 Z M-0.000112766127,31.3080523 C-0.42283118,31.8426529 -0.561438091,32.5798642 -0.30094012,33.2629064 C-0.205053392,33.5143275 -0.105307766,33.7640633 -0.00175812301,34.0120337 L-0.000112766127,31.3080523 Z M47.9967847,23.6031161 C47.9570398,21.1517668 47.5497731,18.7897583 46.8276841,16.5697903 L46.9086689,16.5478247 C45.8333195,16.800208 45.1661736,17.8765481 45.418557,18.9518975 C45.8036129,20.5925351 46,22.2826894 46,24 C46,24.7514327 45.9624009,25.4979213 45.8877515,26.2376991 C45.7796818,27.3086728 46.5376167,28.2674122 47.5945355,28.4162999 C47.837404,27.1105765 47.974559,25.7676993 47.9967847,24.3968839 L48,24 L48.0004291,28.4350262 C48.9622847,28.3770492 49.767671,27.6290052 49.8675409,26.6392911 C49.9556499,25.7661282 50,24.8856067 50,24 C50,21.9744239 49.7679802,19.9776062 49.3127418,18.0379366 L49.2732962,17.8938762 C49.076267,17.2662183 48.5912256,16.7965618 48.000994,16.5982248 L48,24 L47.9967847,23.6031161 Z M1.74291716,15.0040377 C0.689171287,17.6085991 0.0793381407,20.4402738 0.00722519225,23.4052543 L0,24 L-0.000601002489,15.09644 C-0.365348167,15.3401945 -0.652749205,15.7050439 -0.795252231,16.1558841 C-1.59071847,18.6725198 -2,21.3098747 -2,24 C-2,24.21278 -1.99743976,24.4252815 -1.99232638,24.6374741 C-1.96616283,25.7231954 -1.07948661,26.5859416 -0.000146435016,26.5892943 L0,24 C0,24.873038 0.0466155562,25.7351884 0.137493427,26.5840979 L0.0552748857,26.5887119 C1.15952381,26.5621019 2.03312274,25.6453596 2.00651272,24.5411107 C2.00217321,24.3610322 2,24.1806541 2,24 C2,21.7200693 2.34619742,19.4892199 3.01875661,17.3614282 C3.34307294,16.3353808 2.79724252,15.2424649 1.7950664,14.8789712 L1.74291716,15.0040377 Z M45.2589241,12.8513673 C43.3803051,9.2764658 40.626387,6.23346057 37.2820486,4.00723034 L37.330468,3.93989883 C36.6442777,4.80547184 36.7896961,6.06342456 37.6552691,6.74961488 C39.5842132,8.27880164 41.2474073,10.1218219 42.569528,12.1972086 C43.1333244,13.0822229 44.2772826,13.3738521 45.1889943,12.8919763 L45.2589241,12.8513673 Z M11.993582,3.21448664 C8.59163329,5.1838122 5.71793735,7.9643513 3.63705531,11.2915428 L3.56835037,11.2449403 C4.45300877,11.9063428 5.70633878,11.7253582 6.3677413,10.8406998 C7.8415518,8.86940571 9.63704077,7.15482598 11.674212,5.77418575 C12.565064,5.17043375 12.8147275,3.97444855 12.2538772,3.06771409 L11.993582,3.21448664 Z M33.7473432,2.06197959 C31.3461208,0.993487357 28.7370173,0.307658283 25.9983298,0.0824898999 C25.9550703,1.14880801 25.0769384,2 24,2 C22.9456382,2 22.0818349,1.18412221 22.0054857,0.149262345 L22.0035233,0.0818571484 C19.8863773,0.25620613 17.8471238,0.705349768 15.9215076,1.39354327 L15.897256,1.31317594 C16.1804431,2.38082704 17.2755137,3.01676081 18.3431648,2.73357376 C19.9897009,2.2968415 21.6903879,2.05203256 23.4217685,2.0074381 L24,2 C26.4939472,2 28.9286434,2.41428172 31.2326499,3.21595496 C32.2261957,3.5616567 33.3074832,3.07794597 33.7217717,2.12991908 L33.7473432,2.06197959 Z M24,-2 C25.0543618,-2 25.9181651,-1.18412221 25.9945143,-0.149262345 L26,0 L33.3864154,-0.000317870364 C33.1667787,-0.248403731 32.8823471,-0.445255963 32.5471415,-0.561889914 C30.003587,-1.44691329 27.3261521,-1.93264671 24.5877151,-1.99347772 L24,-2 Z M24,-2 C21.7220382,-2 19.4810153,-1.70654951 17.3176538,-1.13273289 C16.7044862,-0.970094447 16.2337151,-0.539666548 15.9976694,-0.000438683024 L22,0 C22,-1.1045695 22.8954305,-2 24,-2 Z" id="surface" fill="#B8433A" fill-rule="nonzero" mask="url(#mask-2)"></path>
    <path d="M24,6 C33.9411255,6 42,14.0588745 42,24 C42,33.9411255 33.9411255,42 24,42 C14.0588745,42 6,33.9411255 6,24 C6,14.0588745 14.0588745,6 24,6 Z" id="surface" fill="#FE5C50" mask="url(#mask-2)"></path>
    <path d="M24,16 C28.418278,16 32,19.581722 32,24 C32,28.418278 28.418278,32 24,32 C19.581722,32 16,28.418278 16,24 C16,19.581722 19.581722,16 24,16 Z" id="surface" fill="#FFFFFF" mask="url(#mask-2)"></path>
  </g>
</svg>